<?xml version="1.0" standalone="no"?>
<!DOCTYPE svg PUBLIC "-//W3C//DTD SVG 20010904//EN"
 "http://www.w3.org/TR/2001/REC-SVG-20010904/DTD/svg10.dtd">
<svg version="1.0" xmlns="http://www.w3.org/2000/svg"
 width="446.000000pt" height="446.000000pt" viewBox="0 0 446.000000 446.000000"
 preserveAspectRatio="xMidYMid meet">
<metadata>
Created by potrace 1.14, written by Peter Selinger 2001-2017
</metadata>
<g transform="translate(0.000000,446.000000) scale(0.100000,-0.100000)"
fill="#000000" stroke="none">
<path d="M2010 4450 c-94 -12 -154 -21 -170 -24 -125 -23 -301 -72 -399 -111
-108 -42 -122 -48 -229 -103 -360 -182 -677 -478 -888 -827 -114 -189 -222
-446 -258 -615 -3 -14 -12 -54 -20 -90 -8 -36 -17 -89 -21 -119 -4 -30 -9 -63
-12 -75 -9 -38 -11 -419 -2 -486 34 -249 73 -408 145 -589 32 -79 108 -238
137 -286 121 -201 216 -324 362 -470 316 -318 694 -519 1150 -614 49 -10 67
-13 177 -28 111 -15 559 -6 588 12 4 3 22 7 41 9 140 20 332 77 497 147 515
220 937 637 1162 1149 59 136 122 331 146 455 4 22 8 45 9 50 40 176 40 632
-1 795 -3 14 -8 39 -11 55 -3 17 -14 64 -25 105 -82 308 -212 570 -407 820
-96 124 -299 324 -395 389 -12 8 -23 18 -26 22 -11 15 -213 141 -291 182 -130
68 -304 138 -416 168 -18 5 -50 14 -70 19 -58 16 -183 40 -233 46 -25 3 -52 8
-60 11 -23 8 -418 11 -480 3z"/>
</g>
</svg>
