<svg xmlns="http://www.w3.org/2000/svg" xmlns:xlink="http://www.w3.org/1999/xlink">
    <symbol id="instagram" viewBox="0 0 512 512" fill="currentColor">
        <path d="m305 256c0 27.0625-21.9375 49-49 49s-49-21.9375-49-49 21.9375-49 49-49 49 21.9375 49 49zm0 0"/>
        <path d="m370.59375 169.304688c-2.355469-6.382813-6.113281-12.160157-10.996094-16.902344-4.742187-4.882813-10.515625-8.640625-16.902344-10.996094-5.179687-2.011719-12.960937-4.40625-27.292968-5.058594-15.503906-.707031-20.152344-.859375-59.402344-.859375-39.253906 0-43.902344.148438-59.402344.855469-14.332031.65625-22.117187 3.050781-27.292968 5.0625-6.386719 2.355469-12.164063 6.113281-16.902344 10.996094-4.882813 4.742187-8.640625 10.515625-11 16.902344-2.011719 5.179687-4.40625 12.964843-5.058594 27.296874-.707031 15.5-.859375 20.148438-.859375 59.402344 0 39.25.152344 43.898438.859375 59.402344.652344 14.332031 3.046875 22.113281 5.058594 27.292969 2.359375 6.386719 6.113281 12.160156 10.996094 16.902343 4.742187 4.882813 10.515624 8.640626 16.902343 10.996094 5.179688 2.015625 12.964844 4.410156 27.296875 5.0625 15.5.707032 20.144532.855469 59.398438.855469 39.257812 0 43.90625-.148437 59.402344-.855469 14.332031-.652344 22.117187-3.046875 27.296874-5.0625 12.820313-4.945312 22.953126-15.078125 27.898438-27.898437 2.011719-5.179688 4.40625-12.960938 5.0625-27.292969.707031-15.503906.855469-20.152344.855469-59.402344 0-39.253906-.148438-43.902344-.855469-59.402344-.652344-14.332031-3.046875-22.117187-5.0625-27.296874zm-114.59375 162.179687c-41.691406 0-75.488281-33.792969-75.488281-75.484375s33.796875-75.484375 75.488281-75.484375c41.6875 0 75.484375 33.792969 75.484375 75.484375s-33.796875 75.484375-75.484375 75.484375zm78.46875-136.3125c-9.742188 0-17.640625-7.898437-17.640625-17.640625s7.898437-17.640625 17.640625-17.640625 17.640625 7.898437 17.640625 17.640625c-.003906 9.742188-7.898437 17.640625-17.640625 17.640625zm0 0"/>
        <path d="m256 0c-141.363281 0-256 114.636719-256 256s114.636719 256 256 256 256-114.636719 256-256-114.636719-256-256-256zm146.113281 316.605469c-.710937 15.648437-3.199219 26.332031-6.832031 35.683593-7.636719 19.746094-23.246094 35.355469-42.992188 42.992188-9.347656 3.632812-20.035156 6.117188-35.679687 6.832031-15.675781.714844-20.683594.886719-60.605469.886719-39.925781 0-44.929687-.171875-60.609375-.886719-15.644531-.714843-26.332031-3.199219-35.679687-6.832031-9.8125-3.691406-18.695313-9.476562-26.039063-16.957031-7.476562-7.339844-13.261719-16.226563-16.953125-26.035157-3.632812-9.347656-6.121094-20.035156-6.832031-35.679687-.722656-15.679687-.890625-20.6875-.890625-60.609375s.167969-44.929688.886719-60.605469c.710937-15.648437 3.195312-26.332031 6.828125-35.683593 3.691406-9.808594 9.480468-18.695313 16.960937-26.035157 7.339844-7.480469 16.226563-13.265625 26.035157-16.957031 9.351562-3.632812 20.035156-6.117188 35.683593-6.832031 15.675781-.714844 20.683594-.886719 60.605469-.886719s44.929688.171875 60.605469.890625c15.648437.710937 26.332031 3.195313 35.683593 6.824219 9.808594 3.691406 18.695313 9.480468 26.039063 16.960937 7.476563 7.34375 13.265625 16.226563 16.953125 26.035157 3.636719 9.351562 6.121094 20.035156 6.835938 35.683593.714843 15.675781.882812 20.683594.882812 60.605469s-.167969 44.929688-.886719 60.605469zm0 0"/>
    </symbol>
    
    <!-- Facebook Icon -->
    <symbol id="facebook" viewBox="0 0 512 512" fill="currentColor">
        <path d="m512 256c0-141.4-114.6-256-256-256s-256 114.6-256 256 114.6 256 256 256c1.5 0 3 0 4.5-.1v-199.2h-55v-64.1h55v-47.2c0-54.7 33.4-84.5 82.2-84.5 23.4 0 43.5 1.7 49.3 2.5v57.2h-33.6c-26.5 0-31.7 12.6-31.7 31.1v40.8h63.5l-8.3 64.1h-55.2v189.5c107-30.7 185.3-129.2 185.3-246.1z"/>
    </symbol>

    <!-- Twitter Icon -->
    <symbol id="twitter" viewBox="0 0 512 512" fill="currentColor">
        <path d="m256 0c-141.363281 0-256 114.636719-256 256s114.636719 256 256 256 256-114.636719 256-256-114.636719-256-256-256zm116.886719 199.601562c.113281 2.519532.167969 5.050782.167969 7.59375 0 77.644532-59.101563 167.179688-167.183594 167.183594h.003906-.003906c-33.183594 0-64.0625-9.726562-90.066406-26.394531 4.597656.542969 9.277343.8125 14.015624.8125 27.53125 0 52.867188-9.390625 72.980469-25.152344-25.722656-.476562-47.410156-17.464843-54.894531-40.8125 3.582031.6875 7.265625 1.0625 11.042969 1.0625 5.363281 0 10.558593-.722656 15.496093-2.070312-26.886718-5.382813-47.140624-29.144531-47.140624-57.597657 0-.265624 0-.503906.007812-.75 7.917969 4.402344 16.972656 7.050782 26.613281 7.347657-15.777343-10.527344-26.148437-28.523438-26.148437-48.910157 0-10.765624 2.910156-20.851562 7.957031-29.535156 28.976563 35.554688 72.28125 58.9375 121.117187 61.394532-9.052343-38.101562 14.847656-73.746094 53.597656-80.203125 3.355469-1.265625 6.855469-1.933593 10.453125-2.046875 15.179687 0 27.957031 5.679687 37.586719 16.664062 11.226562 12.875 17.589844 29.238281 18.792969 45.527344zm0 0"/>
    </symbol>

    <!-- LinkedIn Icon -->
    <symbol id="linkedin" viewBox="0 0 512 512" fill="currentColor">
        <path d="m100.3 32h311.4c13.3 0 24 10.7 24 24v400c0 13.3-10.7 24-24 24h-311.4c-13.3 0-24-10.7-24-24v-400c0-13.3 10.7-24 24-24zm19.4 32c-4.9 0-8.8 3.9-8.8 8.8s3.9 8.8 8.8 8.8 8.8-3.9 8.8-8.8-3.9-8.8-8.8-8.8zm2.3 56c1.3 0 2.3.1 3.5.3-5 1.1-9 3.8-11.1 7.5-1.3-.8-2.7-1.5-4.1-2.3 8.9-4.2 20.7 3.8 22.1 13.2-.9-.2-1.9-.3-2.8-.3zm5.5 128h-19.2v148h19.2v-148zm-9.7 19c-5.3 0-8.9 3.9-8.9 8.8 0 5.2 3.7 8.7 8.7 8.7h9.3c5.3 0 8.8-3.9 8.8-8.8 0-5-3.8-8.8-8.8-8.8zm9.7 107h-19.2v28.7h-11v-28.7h-7.9v-10.5h7.9v-24.3c0-15 8.8-24.7 23.6-24.7 6.7 0 12.8 0.5 14.5.7v11.6h-8.4c-7.4 0-8.6 4.4-8.6 7.9v24.1h16l-1.2 10.5h-15v28.7h19.2zm-159.2-98.7c-27.6 0-50 22.4-50 50s22.4 50 50 50 50-22.4 50-50-22.4-50-50-50zm0 81.4c-17.3 0-31.4-14.1-31.4-31.4s14.1-31.4 31.4-31.4 31.4 14.1 31.4 31.4-14.1 31.4-31.4 31.4zm0-149.4c-18.9 0-34.2 15.3-34.2 34.2s15.3 34.2 34.2 34.2 34.2-15.3 34.2-34.2-15.3-34.2-34.2-34.2zm0 50.5c-9.2 0-16.6-7.4-16.6-16.6s7.4-16.6 16.6-16.6 16.6 7.4 16.6 16.6-7.4 16.6-16.6 16.6zm0 0"/>
    </symbol>

    <!-- GitHub Icon -->
    <symbol id="github" viewBox="0 0 512 512" fill="currentColor">
        <path d="m256 0c-141.4 0-256 114.6-256 256 0 113.6 73.6 210.6 176.8 245.7 12.9 2.4 17.6-5.6 17.6-11v-44.2c-63.5 13.9-76.9-30.7-76.9-30.7-10.4-26.4-25.4-33.6-25.4-33.6-20.8-14.2 1.6-13.9 1.6-13.9 23.1 1.7 35.8 34.8 33.8 34.8 33.8 25.7-1.7 40.7-26.5 40.7-26.5 15.2-38.5 8.7-51.2 8.7-51.2-20.5-8.8-39.9-18.4-39.9-55.5 0-18.7 6.7-34.2 17.7-46.3-1.8-8.7-7.8-30.4 3.5-62.7 0 0 14.5-4.6 47.5 17.7 20.8-5.8 42.8-8.7 64.9-8.7 22.1 0 44.1 2.9 64.9 8.7 33-22.3 47.5-17.7 47.5-17.7 11.3 32.3 5.3 54 3.5 62.7 11 12.1 17.7 27.6 17.7 46.3 0 37.1-19.4 46.7-39.9 55.5 0 0 7.4 12.7 8.7 51.2 0 0 13.7 16.1 38.8 25.8 0 0 15.9 28.9 13.2 53.7 0 0 0 29.4-23.3 31.3-55.6 2.8-60.2 56.8-129.1 128.7-129.1s126.5 56.3 128.7 129.1c4.5 2.4 23.4 2.8 23.3-2.8 1.7-4.9-18.4-1.4-24.4 4.5-32.8 13.7-60.6 40.4-66.2 73.8 0 0 0 0 0 0 0 0 23.4 9.5 35.9-2.9-15.2-26.6-29.4-29.5-66.9 4.5 8.3-26.2 15.3-16.3 45.2-20.2 13.5 15.8 24 48.3 5.4 57.3 0 0-38.5 13-66.8 26.7-15.3-22.8-24-37.6-48.4-20.8 0 0 12 17.6 9.5 39.9-2.2 21.1-7 27-24.4 27 0 0 0 0-23.9 30.6-48.2 58.4 0 0 2.7 17.3 0 0"/>
    </symbol>
</svg>