<svg xmlns="http://www.w3.org/2000/svg" xmlns:xlink="http://www.w3.org/1999/xlink">
    <symbol id="instagram" viewBox="0 0 512 512" fill="currentColor">
        <path d="m305 256c0 27.0625-21.9375 49-49 49s-49-21.9375-49-49 21.9375-49 49-49 49 21.9375 49 49zm0 0"/>
        <path d="m370.59375 169.304688c-2.355469-6.382813-6.113281-12.160157-10.996094-16.902344-4.742187-4.882813-10.515625-8.640625-16.902344-10.996094-5.179687-2.011719-12.960937-4.40625-27.292968-5.058594-15.503906-.707031-20.152344-.859375-59.402344-.859375-39.253906 0-43.902344.148438-59.402344.855469-14.332031.65625-22.117187 3.050781-27.292968 5.0625-6.386719 2.355469-12.164063 6.113281-16.902344 10.996094-4.882813 4.742187-8.640625 10.515625-11 16.902344-2.011719 5.179687-4.40625 12.964843-5.058594 27.296874-.707031 15.5-.859375 20.148438-.859375 59.402344 0 39.25.152344 43.898438.859375 59.402344.652344 14.332031 3.046875 22.113281 5.058594 27.292969 2.359375 6.386719 6.113281 12.160156 10.996094 16.902343 4.742187 4.882813 10.515624 8.640626 16.902343 10.996094 5.179688 2.015625 12.964844 4.410156 27.296875 5.0625 15.5.707032 20.144532.855469 59.398438.855469 39.257812 0 43.90625-.148437 59.402344-.855469 14.332031-.652344 22.117187-3.046875 27.296874-5.0625 12.820313-4.945312 22.953126-15.078125 27.898438-27.898437 2.011719-5.179688 4.40625-12.960938 5.0625-27.292969.707031-15.503906.855469-20.152344.855469-59.402344 0-39.253906-.148438-43.902344-.855469-59.402344-.652344-14.332031-3.046875-22.117187-5.0625-27.296874zm-114.59375 162.179687c-41.691406 0-75.488281-33.792969-75.488281-75.484375s33.796875-75.484375 75.488281-75.484375c41.6875 0 75.484375 33.792969 75.484375 75.484375s-33.796875 75.484375-75.484375 75.484375zm78.46875-136.3125c-9.742188 0-17.640625-7.898437-17.640625-17.640625s7.898437-17.640625 17.640625-17.640625 17.640625 7.898437 17.640625 17.640625c-.003906 9.742188-7.898437 17.640625-17.640625 17.640625zm0 0"/>
        <path d="m256 0c-141.363281 0-256 114.636719-256 256s114.636719 256 256 256 256-114.636719 256-256-114.636719-256-256-256zm146.113281 316.605469c-.710937 15.648437-3.199219 26.332031-6.832031 35.683593-7.636719 19.746094-23.246094 35.355469-42.992188 42.992188-9.347656 3.632812-20.035156 6.117188-35.679687 6.832031-15.675781.714844-20.683594.886719-60.605469.886719-39.925781 0-44.929687-.171875-60.609375-.886719-15.644531-.714843-26.332031-3.199219-35.679687-6.832031-9.8125-3.691406-18.695313-9.476562-26.039063-16.957031-7.476562-7.339844-13.261719-16.226563-16.953125-26.035157-3.632812-9.347656-6.121094-20.035156-6.832031-35.679687-.722656-15.679687-.890625-20.6875-.890625-60.609375s.167969-44.929688.886719-60.605469c.710937-15.648437 3.195312-26.332031 6.828125-35.683593 3.691406-9.808594 9.480468-18.695313 16.960937-26.035157 7.339844-7.480469 16.226563-13.265625 26.035157-16.957031 9.351562-3.632812 20.035156-6.117188 35.683593-6.832031 15.675781-.714844 20.683594-.886719 60.605469-.886719s44.929688.171875 60.605469.890625c15.648437.710937 26.332031 3.195313 35.683593 6.824219 9.808594 3.691406 18.695313 9.480468 26.039063 16.960937 7.476563 7.34375 13.265625 16.226563 16.953125 26.035157 3.636719 9.351562 6.121094 20.035156 6.835938 35.683593.714843 15.675781.882812 20.683594.882812 60.605469s-.167969 44.929688-.886719 60.605469zm0 0"/>
    </symbol>
    
    <!-- Facebook Icon -->
    <symbol id="facebook" viewBox="0 0 512 512" fill="currentColor">
        <path d="m512 256c0-141.4-114.6-256-256-256s-256 114.6-256 256 114.6 256 256 256c1.5 0 3 0 4.5-.1v-199.2h-55v-64.1h55v-47.2c0-54.7 33.4-84.5 82.2-84.5 23.4 0 43.5 1.7 49.3 2.5v57.2h-33.6c-26.5 0-31.7 12.6-31.7 31.1v40.8h63.5l-8.3 64.1h-55.2v189.5c107-30.7 185.3-129.2 185.3-246.1z"/>
    </symbol>

    <!-- Twitter Icon -->
    <symbol id="twitter" viewBox="0 0 512 512" fill="currentColor">
        <path d="m256 0c-141.363281 0-256 114.636719-256 256s114.636719 256 256 256 256-114.636719 256-256-114.636719-256-256-256zm116.886719 199.601562c.113281 2.519532.167969 5.050782.167969 7.59375 0 77.644532-59.101563 167.179688-167.183594 167.183594h.003906-.003906c-33.183594 0-64.0625-9.726562-90.066406-26.394531 4.597656.542969 9.277343.8125 14.015624.8125 27.53125 0 52.867188-9.390625 72.980469-25.152344-25.722656-.476562-47.410156-17.464843-54.894531-40.8125 3.582031.6875 7.265625 1.0625 11.042969 1.0625 5.363281 0 10.558593-.722656 15.496093-2.070312-26.886718-5.382813-47.140624-29.144531-47.140624-57.597657 0-.265624 0-.503906.007812-.75 7.917969 4.402344 16.972656 7.050782 26.613281 7.347657-15.777343-10.527344-26.148437-28.523438-26.148437-48.910157 0-10.765624 2.910156-20.851562 7.957031-29.535156 28.976563 35.554688 72.28125 58.9375 121.117187 61.394532-9.052343-38.101562 14.847656-73.746094 53.597656-80.203125 3.355469-1.265625 6.855469-1.933593 10.453125-2.046875 15.179687 0 27.957031 5.679687 37.586719 16.664062 11.226562 12.875 17.589844 29.238281 18.792969 45.527344zm0 0"/>
    </symbol>

    <!-- LinkedIn Icon -->
    <symbol id="linkedin" viewBox="0 0 512 512" fill="currentColor">
        <path d="m100.3 32h311.4c13.3 0 24 10.7 24 24v400c0 13.3-10.7 24-24 24h-311.4c-13.3 0-24-10.7-24-24v-400c0-13.3 10.7-24 24-24zm19.4 32c-4.9 0-8.8 3.9-8.8 8.8s3.9 8.8 8.8 8.8 8.8-3.9 8.8-8.8-3.9-8.8-8.8-8.8zm2.3 56c1.3 0 2.3.1 3.5.3-5 1.1-9 3.8-11.1 7.5-1.3-.8-2.7-1.5-4.1-2.3 8.9-4.2 20.7 3.8 22.1 13.2-.9-.2-1.9-.3-2.8-.3zm5.5 128h-19.2v148h19.2v-148zm-9.7 19c-5.3 0-8.9 3.9-8.9 8.8 0 5.2 3.7 8.7 8.7 8.7h9.3c5.3 0 8.8-3.9 8.8-8.8 0-5-3.8-8.8-8.8-8.8zm9.7 107h-19.2v28.7h-11v-28.7h-7.9v-10.5h7.9v-24.3c0-15 8.8-24.7 23.6-24.7 6.7 0 12.8 0.5 14.5.7v11.6h-8.4c-7.4 0-8.6 4.4-8.6 7.9v24.1h16l-1.2 10.5h-15v28.7h19.2zm-159.2-98.7c-27.6 0-50 22.4-50 50s22.4 50 50 50 50-22.4 50-50-22.4-50-50-50zm0 81.4c-17.3 0-31.4-14.1-31.4-31.4s14.1-31.4 31.4-31.4 31.4 14.1 31.4 31.4-14.1 31.4-31.4 31.4zm0-149.4c-18.9 0-34.2 15.3-34.2 34.2s15.3 34.2 34.2 34.2 34.2-15.3 34.2-34.2-15.3-34.2-34.2-34.2zm0 50.5c-9.2 0-16.6-7.4-16.6-16.6s7.4-16.6 16.6-16.6 16.6 7.4 16.6 16.6-7.4 16.6-16.6 16.6zm0 0"/>
    </symbol>

    <!-- GitHub Icon -->
    <symbol id="github" viewBox="0 0 512 512" fill="currentColor">
        <path fill="url(#rL2wppHyxHVbobwndsT6Ca_AZOZNnY73haj_gr1)" d="M24,4C12.954,4,4,12.954,4,24c0,8.887,5.801,16.411,13.82,19.016h12.36	C38.199,40.411,44,32.887,44,24C44,12.954,35.046,4,24,4z"></path><path d="M30.01,41.996L30,36.198c0-0.939-0.22-1.856-0.642-2.687c5.641-1.133,8.386-4.468,8.386-10.177	c0-2.255-0.665-4.246-1.976-5.92c0.1-0.317,0.174-0.645,0.22-0.981c0.188-1.369-0.023-2.264-0.193-2.984l-0.027-0.116	c-0.186-0.796-0.409-1.364-0.418-1.388l-0.111-0.282l-0.111-0.282l-0.302-0.032l-0.303-0.032c0,0-0.199-0.021-0.501-0.021	c-0.419,0-1.04,0.042-1.627,0.241l-0.196,0.066c-0.74,0.249-1.439,0.485-2.417,1.069c-0.286,0.171-0.599,0.366-0.934,0.584	C27.334,12.881,25.705,12.69,24,12.69c-1.722,0-3.365,0.192-4.889,0.571c-0.339-0.22-0.654-0.417-0.942-0.589	c-0.978-0.584-1.677-0.819-2.417-1.069l-0.196-0.066c-0.585-0.199-1.207-0.241-1.626-0.241c-0.302,0-0.501,0.021-0.501,0.021	l-0.302,0.032l-0.3,0.031l-0.112,0.281l-0.113,0.283c-0.01,0.026-0.233,0.594-0.419,1.391l-0.027,0.115	c-0.17,0.719-0.381,1.615-0.193,2.983c0.048,0.346,0.125,0.685,0.23,1.011c-1.285,1.666-1.936,3.646-1.936,5.89	c0,5.695,2.748,9.028,8.397,10.17c-0.194,0.388-0.345,0.798-0.452,1.224c-0.197,0.067-0.378,0.112-0.538,0.137	c-0.238,0.036-0.487,0.054-0.739,0.054c-0.686,0-1.225-0.134-1.435-0.259c-0.313-0.186-0.872-0.727-1.414-1.518	c-0.463-0.675-1.185-1.558-1.992-1.927c-0.698-0.319-1.437-0.502-2.029-0.502c-0.138,0-0.265,0.01-0.376,0.028	c-0.517,0.082-0.949,0.366-1.184,0.78c-0.203,0.357-0.235,0.773-0.088,1.141c0.219,0.548,0.851,0.985,1.343,1.255	c0.242,0.133,0.765,0.619,1.07,1.109c0.229,0.368,0.335,0.63,0.482,0.992c0.087,0.215,0.183,0.449,0.313,0.732	c0.47,1.022,1.937,1.924,2.103,2.023c0.806,0.483,2.161,0.638,3.157,0.683l0.123,0.003c0,0,0.001,0,0.001,0	c0.24,0,0.57-0.023,1.004-0.071v2.613c0.002,0.529-0.537,0.649-1.25,0.638l0.547,0.184C19.395,43.572,21.645,44,24,44	c2.355,0,4.605-0.428,6.703-1.176l0.703-0.262C30.695,42.538,30.016,42.422,30.01,41.996z" opacity=".05"></path><path d="M30.781,42.797c-0.406,0.047-1.281-0.109-1.281-0.795v-5.804c0-1.094-0.328-2.151-0.936-3.052	c5.915-0.957,8.679-4.093,8.679-9.812c0-2.237-0.686-4.194-2.039-5.822c0.137-0.365,0.233-0.75,0.288-1.147	c0.175-1.276-0.016-2.086-0.184-2.801l-0.027-0.116c-0.178-0.761-0.388-1.297-0.397-1.319l-0.111-0.282l-0.303-0.032	c0,0-0.178-0.019-0.449-0.019c-0.381,0-0.944,0.037-1.466,0.215l-0.196,0.066c-0.714,0.241-1.389,0.468-2.321,1.024	c-0.332,0.198-0.702,0.431-1.101,0.694C27.404,13.394,25.745,13.19,24,13.19c-1.762,0-3.435,0.205-4.979,0.61	c-0.403-0.265-0.775-0.499-1.109-0.699c-0.932-0.556-1.607-0.784-2.321-1.024l-0.196-0.066c-0.521-0.177-1.085-0.215-1.466-0.215	c-0.271,0-0.449,0.019-0.449,0.019l-0.302,0.032l-0.113,0.283c-0.009,0.022-0.219,0.558-0.397,1.319l-0.027,0.116	c-0.169,0.715-0.36,1.524-0.184,2.8c0.056,0.407,0.156,0.801,0.298,1.174c-1.327,1.62-1.999,3.567-1.999,5.795	c0,5.703,2.766,8.838,8.686,9.806c-0.395,0.59-0.671,1.255-0.813,1.964c-0.33,0.13-0.629,0.216-0.891,0.256	c-0.263,0.04-0.537,0.06-0.814,0.06c-0.69,0-1.353-0.129-1.69-0.329c-0.44-0.261-1.057-0.914-1.572-1.665	c-0.35-0.51-1.047-1.417-1.788-1.755c-0.635-0.29-1.298-0.457-1.821-0.457c-0.11,0-0.21,0.008-0.298,0.022	c-0.366,0.058-0.668,0.252-0.828,0.534c-0.128,0.224-0.149,0.483-0.059,0.708c0.179,0.448,0.842,0.85,1.119,1.002	c0.335,0.184,0.919,0.744,1.254,1.284c0.251,0.404,0.37,0.697,0.521,1.067c0.085,0.209,0.178,0.437,0.304,0.712	c0.331,0.719,1.353,1.472,1.905,1.803c0.754,0.452,2.154,0.578,2.922,0.612l0.111,0.002c0.299,0,0.8-0.045,1.495-0.135v3.177	c0,0.779-0.991,0.81-1.234,0.81c-0.031,0,0.503,0.184,0.503,0.184C19.731,43.64,21.822,44,24,44c2.178,0,4.269-0.36,6.231-1.003	C30.231,42.997,30.812,42.793,30.781,42.797z" opacity=".07"></path><path fill="#fff" d="M36.744,23.334c0-2.31-0.782-4.226-2.117-5.728c0.145-0.325,0.296-0.761,0.371-1.309	c0.172-1.25-0.031-2-0.203-2.734s-0.375-1.25-0.375-1.25s-0.922-0.094-1.703,0.172s-1.453,0.469-2.422,1.047	c-0.453,0.27-0.909,0.566-1.27,0.806C27.482,13.91,25.785,13.69,24,13.69c-1.801,0-3.513,0.221-5.067,0.652	c-0.362-0.241-0.821-0.539-1.277-0.811c-0.969-0.578-1.641-0.781-2.422-1.047s-1.703-0.172-1.703-0.172s-0.203,0.516-0.375,1.25	s-0.375,1.484-0.203,2.734c0.077,0.562,0.233,1.006,0.382,1.333c-1.31,1.493-2.078,3.397-2.078,5.704	c0,5.983,3.232,8.714,9.121,9.435c-0.687,0.726-1.148,1.656-1.303,2.691c-0.387,0.17-0.833,0.33-1.262,0.394	c-1.104,0.167-2.271,0-2.833-0.333s-1.229-1.083-1.729-1.813c-0.422-0.616-1.031-1.331-1.583-1.583	c-0.729-0.333-1.438-0.458-1.833-0.396c-0.396,0.063-0.583,0.354-0.5,0.563c0.083,0.208,0.479,0.521,0.896,0.75	c0.417,0.229,1.063,0.854,1.438,1.458c0.418,0.674,0.5,1.063,0.854,1.833c0.249,0.542,1.101,1.219,1.708,1.583	c0.521,0.313,1.562,0.491,2.688,0.542c0.389,0.018,1.308-0.096,2.083-0.206v3.75c0,0.639-0.585,1.125-1.191,1.013	C19.756,43.668,21.833,44,24,44c2.166,0,4.243-0.332,6.19-0.984C29.585,43.127,29,42.641,29,42.002v-5.804	c0-1.329-0.527-2.53-1.373-3.425C33.473,32.071,36.744,29.405,36.744,23.334z M11.239,32.727c-0.154-0.079-0.237-0.225-0.185-0.328	c0.052-0.103,0.22-0.122,0.374-0.043c0.154,0.079,0.237,0.225,0.185,0.328S11.393,32.806,11.239,32.727z M12.451,33.482	c-0.081,0.088-0.255,0.06-0.389-0.062s-0.177-0.293-0.096-0.381c0.081-0.088,0.255-0.06,0.389,0.062S12.532,33.394,12.451,33.482z M13.205,34.732c-0.102,0.072-0.275,0.005-0.386-0.15s-0.118-0.34-0.016-0.412s0.275-0.005,0.386,0.15	C13.299,34.475,13.307,34.66,13.205,34.732z M14.288,35.673c-0.069,0.112-0.265,0.117-0.437,0.012s-0.256-0.281-0.187-0.393	c0.069-0.112,0.265-0.117,0.437-0.012S14.357,35.561,14.288,35.673z M15.312,36.594c-0.213-0.026-0.371-0.159-0.353-0.297	c0.017-0.138,0.204-0.228,0.416-0.202c0.213,0.026,0.371,0.159,0.353,0.297C15.711,36.529,15.525,36.62,15.312,36.594z M16.963,36.833c-0.227-0.013-0.404-0.143-0.395-0.289c0.009-0.146,0.2-0.255,0.427-0.242c0.227,0.013,0.404,0.143,0.395,0.289	C17.381,36.738,17.19,36.846,16.963,36.833z M18.521,36.677c-0.242,0-0.438-0.126-0.438-0.281s0.196-0.281,0.438-0.281	c0.242,0,0.438,0.126,0.438,0.281S18.762,36.677,18.521,36.677z"></path>
    </symbol>
</svg>