<svg xmlns="http://www.w3.org/2000/svg" xmlns:xlink="http://www.w3.org/1999/xlink">
    <!-- Instagram Icon-->
    <symbol id="instagram" viewBox="0 0 512 512" fill="currentColor">
        <path d="m305 256c0 27.0625-21.9375 49-49 49s-49-21.9375-49-49 21.9375-49 49-49 49 21.9375 49 49zm0 0"/>
        <path d="m370.59375 169.304688c-2.355469-6.382813-6.113281-12.160157-10.996094-16.902344-4.742187-4.882813-10.515625-8.640625-16.902344-10.996094-5.179687-2.011719-12.960937-4.40625-27.292968-5.058594-15.503906-.707031-20.152344-.859375-59.402344-.859375-39.253906 0-43.902344.148438-59.402344.855469-14.332031.65625-22.117187 3.050781-27.292968 5.0625-6.386719 2.355469-12.164063 6.113281-16.902344 10.996094-4.882813 4.742187-8.640625 10.515625-11 16.902344-2.011719 5.179687-4.40625 12.964843-5.058594 27.296874-.707031 15.5-.859375 20.148438-.859375 59.402344 0 39.25.152344 43.898438.859375 59.402344.652344 14.332031 3.046875 22.113281 5.058594 27.292969 2.359375 6.386719 6.113281 12.160156 10.996094 16.902343 4.742187 4.882813 10.515624 8.640626 16.902343 10.996094 5.179688 2.015625 12.964844 4.410156 27.296875 5.0625 15.5.707032 20.144532.855469 59.398438.855469 39.257812 0 43.90625-.148437 59.402344-.855469 14.332031-.652344 22.117187-3.046875 27.296874-5.0625 12.820313-4.945312 22.953126-15.078125 27.898438-27.898437 2.011719-5.179688 4.40625-12.960938 5.0625-27.292969.707031-15.503906.855469-20.152344.855469-59.402344 0-39.253906-.148438-43.902344-.855469-59.402344-.652344-14.332031-3.046875-22.117187-5.0625-27.296874zm-114.59375 162.179687c-41.691406 0-75.488281-33.792969-75.488281-75.484375s33.796875-75.484375 75.488281-75.484375c41.6875 0 75.484375 33.792969 75.484375 75.484375s-33.796875 75.484375-75.484375 75.484375zm78.46875-136.3125c-9.742188 0-17.640625-7.898437-17.640625-17.640625s7.898437-17.640625 17.640625-17.640625 17.640625 7.898437 17.640625 17.640625c-.003906 9.742188-7.898437 17.640625-17.640625 17.640625zm0 0"/>
        <path d="m256 0c-141.363281 0-256 114.636719-256 256s114.636719 256 256 256 256-114.636719 256-256-114.636719-256-256-256zm146.113281 316.605469c-.710937 15.648437-3.199219 26.332031-6.832031 35.683593-7.636719 19.746094-23.246094 35.355469-42.992188 42.992188-9.347656 3.632812-20.035156 6.117188-35.679687 6.832031-15.675781.714844-20.683594.886719-60.605469.886719-39.925781 0-44.929687-.171875-60.609375-.886719-15.644531-.714843-26.332031-3.199219-35.679687-6.832031-9.8125-3.691406-18.695313-9.476562-26.039063-16.957031-7.476562-7.339844-13.261719-16.226563-16.953125-26.035157-3.632812-9.347656-6.121094-20.035156-6.832031-35.679687-.722656-15.679687-.890625-20.6875-.890625-60.609375s.167969-44.929688.886719-60.605469c.710937-15.648437 3.195312-26.332031 6.828125-35.683593 3.691406-9.808594 9.480468-18.695313 16.960937-26.035157 7.339844-7.480469 16.226563-13.265625 26.035157-16.957031 9.351562-3.632812 20.035156-6.117188 35.683593-6.832031 15.675781-.714844 20.683594-.886719 60.605469-.886719s44.929688.171875 60.605469.890625c15.648437.710937 26.332031 3.195313 35.683593 6.824219 9.808594 3.691406 18.695313 9.480468 26.039063 16.960937 7.476563 7.34375 13.265625 16.226563 16.953125 26.035157 3.636719 9.351562 6.121094 20.035156 6.835938 35.683593.714843 15.675781.882812 20.683594.882812 60.605469s-.167969 44.929688-.886719 60.605469zm0 0"/>
    </symbol>

    <!-- Twitter Icon -->
    <symbol id="twitter" viewBox="0 0 512 512" fill="currentColor">
        <!-- <path d="m256 0c-141.363281 0-256 114.636719-256 256s114.636719 256 256 256 256-114.636719 256-256-114.636719-256-256-256zm116.886719 199.601562c.113281 2.519532.167969 5.050782.167969 7.59375 0 77.644532-59.101563 167.179688-167.183594 167.183594h.003906-.003906c-33.183594 0-64.0625-9.726562-90.066406-26.394531 4.597656.542969 9.277343.8125 14.015624.8125 27.53125 0 52.867188-9.390625 72.980469-25.152344-25.722656-.476562-47.410156-17.464843-54.894531-40.8125 3.582031.6875 7.265625 1.0625 11.042969 1.0625 5.363281 0 10.558593-.722656 15.496093-2.070312-26.886718-5.382813-47.140624-29.144531-47.140624-57.597657 0-.265624 0-.503906.007812-.75 7.917969 4.402344 16.972656 7.050782 26.613281 7.347657-15.777343-10.527344-26.148437-28.523438-26.148437-48.910157 0-10.765624 2.910156-20.851562 7.957031-29.535156 28.976563 35.554688 72.28125 58.9375 121.117187 61.394532-9.052343-38.101562 14.847656-73.746094 53.597656-80.203125 3.355469-1.265625 6.855469-1.933593 10.453125-2.046875 15.179687 0 27.957031 5.679687 37.586719 16.664062 11.226562 12.875 17.589844 29.238281 18.792969 45.527344zm0 0"/> -->
        <circle cx="256" cy="256" r="256"/>
        <path d="M365.3 128H307L256 188.7 205 128h-58.3l104.5 123.2L146.7 384h58.3L256 318.2 307 384h58.3L312.3 252.8 416 128z" fill="#fff"/>
</symbol>
    </symbol>

    <!-- LinkedIn Icon -->
    <symbol id="linkedin" viewBox="0 0 512 512" fill="currentColor">
    <path d="M100.28 448H7.4V149.9h92.88zm-46.44-340a53.69 53.69 0 1153.68-53.7 53.67 53.67 0 01-53.68 53.7zM504.9 448h-92.4V302.4c0-34.7-.7-79.2-48.2-79.2-48.3 0-55.7 37.7-55.7 76.6V448h-92.6V149.9h88.9v40.7h1.3a97.5 97.5 0 0187.7-48.2c93.8 0 111.1 61.8 111.1 142.3V448z"/>
    </symbol>

    <!-- GitHub Icon -->
    <symbol id="github" viewBox="0 0 512 512" fill="currentColor">
        <path d="M256,32C132.3,32,32,132.3,32,256c0,99.9,64.8,184.5,154.9,214.4
        c11.3,2.1,15.4-4.9,15.4-10.9c0-5.4-0.2-23.1-0.3-41.9c-63,13.7-76.3-26.3-76.3-26.3
        c-10.3-26.1-25.2-33.1-25.2-33.1c-20.6-14.1,1.6-13.8,1.6-13.8c22.8,1.6,34.8,23.4,34.8,23.4
        c20.2,34.6,52.9,24.6,65.8,18.8c2-14.6,7.9-24.6,14.3-30.3c-50.3-5.7-103.2-25.2-103.2-112.1
        c0-24.8,8.9-45.1,23.4-61c-2.3-5.7-10.1-28.6,2.2-59.6c0,0,19-6.1,62.3,23.3c18-5,37.3-7.5,56.5-7.6
        c19.2,0.1,38.5,2.6,56.6,7.6c43.3-29.5,62.2-23.3,62.2-23.3c12.3,31,4.5,53.9,2.2,59.6
        c14.6,15.9,23.3,36.1,23.3,61c0,87.1-53,106.3-103.5,111.9c8.1,7,15.3,20.8,15.3,42
        c0,30.4-0.3,54.9-0.3,62.4c0,6.1,4.1,13.1,15.5,10.9C415.3,440.5,480,355.9,480,256
        C480,132.3,379.7,32,256,32z"/>
    </symbol>
</svg>